<svg xmlns="http://www.w3.org/2000/svg" width="1920" height="1080" viewBox="0 0 1920 1080" preserveAspectRatio="xMidYMid slice">
<defs><pattern id="grid" width="80" height="80" patternUnits="userSpaceOnUse"><path d="M80 0 L0 0 0 80" fill="none" stroke="#C8B8A0" stroke-opacity="0.05"/></pattern>
<radialGradient id="gridFade" cx="960" cy="860" r="900" gradientUnits="userSpaceOnUse"><stop offset="0" stop-color="#fff" stop-opacity="1"/><stop offset="1" stop-color="#fff" stop-opacity="0"/></radialGradient>
<mask id="m"><rect width="1920" height="1080" fill="url(#gridFade)"/></mask>
<linearGradient id="bl" x1="200" y1="0" x2="960" y2="860" gradientUnits="userSpaceOnUse"><stop offset="0" stop-color="#F3D39A" stop-opacity="0"/><stop offset="1" stop-color="#F3D39A" stop-opacity="0.55"/></linearGradient>
<linearGradient id="br" x1="1720" y1="0" x2="960" y2="860" gradientUnits="userSpaceOnUse"><stop offset="0" stop-color="#F3D39A" stop-opacity="0"/><stop offset="1" stop-color="#F3D39A" stop-opacity="0.55"/></linearGradient>
<radialGradient id="core" cx="960" cy="860" r="620" gradientUnits="userSpaceOnUse"><stop offset="0" stop-color="#D9B37A" stop-opacity="0.30"/><stop offset="1" stop-color="#0A0A0A" stop-opacity="0"/></radialGradient>
<radialGradient id="cool" cx="960" cy="0" r="900" gradientUnits="userSpaceOnUse"><stop offset="0" stop-color="#3E4A5E" stop-opacity="0.16"/><stop offset="1" stop-color="#0A0A0A" stop-opacity="0"/></radialGradient>
<filter id="blur"><feGaussianBlur stdDeviation="22"/></filter></defs>
<rect width="1920" height="1080" fill="#0A0A0A"/><rect width="1920" height="1080" fill="url(#cool)"/>
<rect width="1920" height="1080" fill="url(#grid)" mask="url(#m)"/>
<rect width="1920" height="1080" fill="url(#core)"/>
<g filter="url(#blur)" opacity="0.7"><polygon points="140,-40 300,-40 960,860" fill="url(#bl)"/><polygon points="1620,-40 1780,-40 960,860" fill="url(#br)"/></g>
<line x1="220" y1="-40" x2="960" y2="860" stroke="url(#bl)" stroke-width="1.5"/>
<line x1="1700" y1="-40" x2="960" y2="860" stroke="url(#br)" stroke-width="1.5"/>
<polygon points="960,894 994,928 960,962 926,928" fill="#DECA1B" fill-opacity="0.35"/></svg>
