<svg xmlns="http://www.w3.org/2000/svg" width="1920" height="1080" viewBox="0 0 1920 1080" preserveAspectRatio="xMidYMid slice">
<defs><radialGradient id="g1" cx="200" cy="120" r="800" gradientUnits="userSpaceOnUse"><stop offset="0" stop-color="#C8B8A0" stop-opacity="0.10"/><stop offset="1" stop-color="#0A0A0A" stop-opacity="0"/></radialGradient>
<radialGradient id="g2" cx="1760" cy="980" r="800" gradientUnits="userSpaceOnUse"><stop offset="0" stop-color="#4A5568" stop-opacity="0.14"/><stop offset="1" stop-color="#0A0A0A" stop-opacity="0"/></radialGradient></defs>
<rect width="1920" height="1080" fill="#0A0A0A"/><rect width="1920" height="1080" fill="url(#g1)"/><rect width="1920" height="1080" fill="url(#g2)"/>
<g fill="none" stroke="#C8B8A0" stroke-opacity="0.07"><path d="M-40 860 C 260 700, 180 980, 520 1120"/><path d="M1960 180 C 1640 320, 1760 40, 1420 -60"/><path d="M-60 240 C 200 180, 120 420, 360 380 S 420 120, 260 60"/></g>
<g stroke="#C8B8A0" stroke-linecap="round" stroke-width="1.2"><line x1="622" y1="163" x2="612" y2="182" stroke-opacity="0.11"/><line x1="702" y1="63" x2="702" y2="83" stroke-opacity="0.10"/><line x1="134" y1="98" x2="148" y2="157" stroke-opacity="0.06"/><line x1="1820" y1="623" x2="1842" y2="688" stroke-opacity="0.06"/><line x1="1648" y1="313" x2="1670" y2="323" stroke-opacity="0.08"/><line x1="1567" y1="195" x2="1554" y2="245" stroke-opacity="0.09"/><line x1="1052" y1="68" x2="1080" y2="73" stroke-opacity="0.12"/><line x1="576" y1="858" x2="558" y2="883" stroke-opacity="0.11"/><line x1="1008" y1="945" x2="987" y2="970" stroke-opacity="0.16"/><line x1="227" y1="452" x2="208" y2="469" stroke-opacity="0.10"/><line x1="75" y1="722" x2="40" y2="754" stroke-opacity="0.15"/><line x1="876" y1="907" x2="834" y2="915" stroke-opacity="0.12"/><line x1="116" y1="758" x2="85" y2="820" stroke-opacity="0.14"/><line x1="1284" y1="24" x2="1287" y2="51" stroke-opacity="0.06"/><line x1="113" y1="830" x2="142" y2="842" stroke-opacity="0.09"/><line x1="1673" y1="87" x2="1681" y2="133" stroke-opacity="0.15"/><line x1="1573" y1="933" x2="1598" y2="963" stroke-opacity="0.09"/><line x1="1698" y1="1034" x2="1722" y2="1047" stroke-opacity="0.08"/><line x1="8" y1="452" x2="27" y2="496" stroke-opacity="0.15"/><line x1="104" y1="971" x2="55" y2="1012" stroke-opacity="0.14"/><line x1="199" y1="685" x2="220" y2="689" stroke-opacity="0.07"/><line x1="312" y1="367" x2="329" y2="370" stroke-opacity="0.07"/><line x1="195" y1="393" x2="258" y2="398" stroke-opacity="0.12"/><line x1="285" y1="272" x2="302" y2="305" stroke-opacity="0.06"/><line x1="1630" y1="1073" x2="1635" y2="1115" stroke-opacity="0.06"/><line x1="196" y1="370" x2="237" y2="415" stroke-opacity="0.07"/><line x1="44" y1="1027" x2="42" y2="1053" stroke-opacity="0.11"/><line x1="52" y1="570" x2="-11" y2="575" stroke-opacity="0.13"/><line x1="321" y1="834" x2="315" y2="892" stroke-opacity="0.09"/><line x1="428" y1="876" x2="366" y2="879" stroke-opacity="0.14"/><line x1="1571" y1="799" x2="1605" y2="828" stroke-opacity="0.09"/><line x1="56" y1="30" x2="76" y2="54" stroke-opacity="0.13"/><line x1="1837" y1="483" x2="1768" y2="497" stroke-opacity="0.16"/><line x1="436" y1="212" x2="476" y2="243" stroke-opacity="0.15"/><line x1="1614" y1="518" x2="1586" y2="571" stroke-opacity="0.06"/><line x1="1268" y1="983" x2="1224" y2="1019" stroke-opacity="0.10"/><line x1="343" y1="852" x2="373" y2="904" stroke-opacity="0.16"/><line x1="1818" y1="783" x2="1839" y2="795" stroke-opacity="0.07"/><line x1="1737" y1="871" x2="1792" y2="898" stroke-opacity="0.16"/><line x1="1053" y1="141" x2="1122" y2="145" stroke-opacity="0.12"/><line x1="1011" y1="1008" x2="1024" y2="1070" stroke-opacity="0.14"/><line x1="405" y1="272" x2="424" y2="296" stroke-opacity="0.11"/><line x1="252" y1="983" x2="270" y2="1020" stroke-opacity="0.11"/><line x1="1736" y1="454" x2="1694" y2="466" stroke-opacity="0.11"/><line x1="1005" y1="20" x2="1010" y2="47" stroke-opacity="0.05"/><line x1="1534" y1="186" x2="1539" y2="242" stroke-opacity="0.11"/><line x1="204" y1="605" x2="227" y2="628" stroke-opacity="0.13"/><line x1="1459" y1="985" x2="1468" y2="1035" stroke-opacity="0.11"/><line x1="918" y1="1017" x2="881" y2="1068" stroke-opacity="0.15"/><line x1="1811" y1="907" x2="1833" y2="917" stroke-opacity="0.10"/><line x1="139" y1="260" x2="191" y2="272" stroke-opacity="0.14"/><line x1="1722" y1="167" x2="1689" y2="208" stroke-opacity="0.07"/><line x1="1695" y1="1045" x2="1747" y2="1088" stroke-opacity="0.09"/><line x1="936" y1="1069" x2="913" y2="1082" stroke-opacity="0.10"/><line x1="376" y1="344" x2="364" y2="359" stroke-opacity="0.11"/><line x1="846" y1="20" x2="871" y2="63" stroke-opacity="0.11"/><line x1="123" y1="1064" x2="70" y2="1106" stroke-opacity="0.06"/><line x1="510" y1="43" x2="485" y2="63" stroke-opacity="0.06"/><line x1="811" y1="984" x2="784" y2="1001" stroke-opacity="0.07"/><line x1="1765" y1="616" x2="1751" y2="635" stroke-opacity="0.06"/><line x1="139" y1="1013" x2="115" y2="1068" stroke-opacity="0.06"/><line x1="1644" y1="72" x2="1606" y2="89" stroke-opacity="0.09"/><line x1="1062" y1="1001" x2="1078" y2="1019" stroke-opacity="0.11"/><line x1="458" y1="118" x2="476" y2="128" stroke-opacity="0.07"/><line x1="1458" y1="313" x2="1458" y2="340" stroke-opacity="0.09"/><line x1="35" y1="270" x2="91" y2="273" stroke-opacity="0.11"/><line x1="1795" y1="115" x2="1760" y2="137" stroke-opacity="0.10"/><line x1="1602" y1="425" x2="1601" y2="478" stroke-opacity="0.16"/><line x1="658" y1="899" x2="627" y2="940" stroke-opacity="0.09"/><line x1="667" y1="59" x2="687" y2="67" stroke-opacity="0.13"/><line x1="491" y1="176" x2="550" y2="193" stroke-opacity="0.15"/><line x1="465" y1="317" x2="468" y2="342" stroke-opacity="0.10"/><line x1="505" y1="1039" x2="459" y2="1043" stroke-opacity="0.08"/><line x1="1854" y1="334" x2="1862" y2="351" stroke-opacity="0.09"/><line x1="10" y1="285" x2="47" y2="296" stroke-opacity="0.05"/><line x1="43" y1="329" x2="79" y2="361" stroke-opacity="0.11"/><line x1="1375" y1="949" x2="1387" y2="982" stroke-opacity="0.16"/><line x1="287" y1="782" x2="278" y2="800" stroke-opacity="0.14"/><line x1="1713" y1="678" x2="1672" y2="722" stroke-opacity="0.07"/><line x1="1603" y1="869" x2="1562" y2="894" stroke-opacity="0.15"/><line x1="441" y1="34" x2="475" y2="49" stroke-opacity="0.06"/><line x1="1605" y1="603" x2="1585" y2="650" stroke-opacity="0.12"/><line x1="939" y1="4" x2="894" y2="37" stroke-opacity="0.11"/><line x1="127" y1="796" x2="142" y2="811" stroke-opacity="0.08"/><line x1="1400" y1="222" x2="1353" y2="272" stroke-opacity="0.10"/><line x1="149" y1="159" x2="188" y2="200" stroke-opacity="0.08"/><line x1="1090" y1="13" x2="1121" y2="20" stroke-opacity="0.12"/><line x1="228" y1="965" x2="283" y2="1006" stroke-opacity="0.15"/><line x1="34" y1="496" x2="-24" y2="532" stroke-opacity="0.10"/><line x1="516" y1="227" x2="487" y2="232" stroke-opacity="0.11"/><line x1="272" y1="566" x2="248" y2="570" stroke-opacity="0.14"/><line x1="977" y1="958" x2="959" y2="982" stroke-opacity="0.15"/><line x1="933" y1="27" x2="977" y2="27" stroke-opacity="0.10"/><line x1="580" y1="152" x2="596" y2="182" stroke-opacity="0.14"/><line x1="3" y1="811" x2="-18" y2="823" stroke-opacity="0.15"/><line x1="1369" y1="974" x2="1392" y2="1003" stroke-opacity="0.09"/><line x1="1918" y1="636" x2="1935" y2="673" stroke-opacity="0.08"/><line x1="93" y1="110" x2="64" y2="126" stroke-opacity="0.15"/><line x1="479" y1="287" x2="478" y2="315" stroke-opacity="0.09"/><line x1="1836" y1="955" x2="1794" y2="983" stroke-opacity="0.15"/><line x1="1806" y1="593" x2="1793" y2="609" stroke-opacity="0.13"/><line x1="94" y1="1001" x2="133" y2="1017" stroke-opacity="0.09"/><line x1="1874" y1="281" x2="1859" y2="311" stroke-opacity="0.11"/><line x1="757" y1="181" x2="782" y2="195" stroke-opacity="0.15"/><line x1="1740" y1="1076" x2="1744" y2="1101" stroke-opacity="0.07"/><line x1="174" y1="369" x2="203" y2="378" stroke-opacity="0.08"/><line x1="1094" y1="958" x2="1066" y2="986" stroke-opacity="0.10"/><line x1="649" y1="67" x2="693" y2="119" stroke-opacity="0.06"/><line x1="1657" y1="233" x2="1677" y2="256" stroke-opacity="0.09"/><line x1="856" y1="1030" x2="800" y2="1059" stroke-opacity="0.05"/><line x1="62" y1="766" x2="22" y2="780" stroke-opacity="0.11"/><line x1="0" y1="423" x2="-59" y2="437" stroke-opacity="0.14"/><line x1="1867" y1="268" x2="1891" y2="277" stroke-opacity="0.11"/><line x1="1310" y1="1017" x2="1276" y2="1056" stroke-opacity="0.13"/><line x1="76" y1="845" x2="125" y2="889" stroke-opacity="0.12"/><line x1="583" y1="138" x2="619" y2="175" stroke-opacity="0.13"/><line x1="215" y1="76" x2="212" y2="124" stroke-opacity="0.09"/><line x1="20" y1="326" x2="28" y2="393" stroke-opacity="0.12"/><line x1="1697" y1="513" x2="1720" y2="534" stroke-opacity="0.16"/><line x1="42" y1="538" x2="21" y2="572" stroke-opacity="0.08"/><line x1="1281" y1="999" x2="1296" y2="1012" stroke-opacity="0.09"/><line x1="380" y1="861" x2="350" y2="893" stroke-opacity="0.07"/><line x1="1862" y1="337" x2="1837" y2="353" stroke-opacity="0.07"/><line x1="1460" y1="319" x2="1417" y2="325" stroke-opacity="0.07"/><line x1="1277" y1="1025" x2="1312" y2="1042" stroke-opacity="0.07"/><line x1="1870" y1="153" x2="1891" y2="157" stroke-opacity="0.09"/><line x1="1724" y1="954" x2="1678" y2="1006" stroke-opacity="0.15"/><line x1="632" y1="200" x2="576" y2="212" stroke-opacity="0.05"/><line x1="325" y1="3" x2="348" y2="31" stroke-opacity="0.16"/><line x1="238" y1="1041" x2="267" y2="1064" stroke-opacity="0.14"/><line x1="1578" y1="467" x2="1620" y2="474" stroke-opacity="0.09"/><line x1="1765" y1="208" x2="1792" y2="267" stroke-opacity="0.05"/><line x1="1472" y1="44" x2="1493" y2="46" stroke-opacity="0.15"/><line x1="493" y1="807" x2="460" y2="818" stroke-opacity="0.08"/><line x1="1839" y1="666" x2="1876" y2="707" stroke-opacity="0.08"/><line x1="529" y1="4" x2="482" y2="50" stroke-opacity="0.12"/><line x1="1811" y1="26" x2="1843" y2="55" stroke-opacity="0.16"/><line x1="1832" y1="417" x2="1860" y2="446" stroke-opacity="0.10"/><line x1="1782" y1="198" x2="1736" y2="230" stroke-opacity="0.14"/><line x1="152" y1="213" x2="130" y2="235" stroke-opacity="0.06"/><line x1="65" y1="597" x2="101" y2="656" stroke-opacity="0.15"/><line x1="1897" y1="286" x2="1919" y2="292" stroke-opacity="0.10"/><line x1="1436" y1="915" x2="1424" y2="936" stroke-opacity="0.14"/><line x1="382" y1="267" x2="401" y2="285" stroke-opacity="0.15"/><line x1="760" y1="1072" x2="760" y2="1102" stroke-opacity="0.14"/><line x1="1254" y1="1070" x2="1295" y2="1084" stroke-opacity="0.14"/><line x1="1614" y1="988" x2="1647" y2="992" stroke-opacity="0.06"/><line x1="364" y1="1051" x2="347" y2="1115" stroke-opacity="0.09"/><line x1="1663" y1="485" x2="1703" y2="528" stroke-opacity="0.15"/><line x1="203" y1="644" x2="192" y2="671" stroke-opacity="0.09"/></g>
<g fill="#E8E0D8"><circle cx="271" cy="220" r="1.3" fill-opacity="0.18"/><circle cx="1251" cy="220" r="1.0" fill-opacity="0.14"/><circle cx="1302" cy="200" r="1.4" fill-opacity="0.11"/><circle cx="1527" cy="592" r="1.1" fill-opacity="0.10"/><circle cx="759" cy="594" r="1.8" fill-opacity="0.10"/><circle cx="314" cy="751" r="1.5" fill-opacity="0.13"/><circle cx="591" cy="1029" r="1.4" fill-opacity="0.18"/><circle cx="686" cy="450" r="2.0" fill-opacity="0.25"/><circle cx="698" cy="213" r="1.9" fill-opacity="0.11"/><circle cx="11" cy="974" r="1.5" fill-opacity="0.22"/><circle cx="780" cy="953" r="1.6" fill-opacity="0.11"/><circle cx="28" cy="596" r="1.8" fill-opacity="0.23"/><circle cx="171" cy="672" r="1.4" fill-opacity="0.17"/><circle cx="280" cy="306" r="1.6" fill-opacity="0.24"/><circle cx="209" cy="530" r="2.0" fill-opacity="0.24"/><circle cx="379" cy="137" r="2.1" fill-opacity="0.25"/><circle cx="927" cy="58" r="2.1" fill-opacity="0.15"/><circle cx="1736" cy="670" r="2.0" fill-opacity="0.11"/><circle cx="1509" cy="240" r="1.5" fill-opacity="0.22"/><circle cx="1592" cy="198" r="1.3" fill-opacity="0.15"/><circle cx="994" cy="414" r="1.1" fill-opacity="0.12"/><circle cx="1392" cy="969" r="1.0" fill-opacity="0.18"/><circle cx="1454" cy="41" r="2.0" fill-opacity="0.10"/><circle cx="1151" cy="594" r="1.8" fill-opacity="0.13"/><circle cx="807" cy="629" r="1.5" fill-opacity="0.19"/><circle cx="858" cy="473" r="1.0" fill-opacity="0.19"/><circle cx="940" cy="254" r="1.9" fill-opacity="0.21"/><circle cx="880" cy="194" r="1.6" fill-opacity="0.10"/><circle cx="247" cy="465" r="1.1" fill-opacity="0.16"/><circle cx="980" cy="44" r="1.8" fill-opacity="0.09"/><circle cx="1408" cy="840" r="1.6" fill-opacity="0.09"/><circle cx="968" cy="408" r="2.1" fill-opacity="0.10"/><circle cx="1646" cy="1076" r="1.9" fill-opacity="0.22"/><circle cx="372" cy="1060" r="1.6" fill-opacity="0.24"/><circle cx="1759" cy="178" r="1.9" fill-opacity="0.24"/><circle cx="126" cy="379" r="1.9" fill-opacity="0.11"/><circle cx="1721" cy="297" r="2.0" fill-opacity="0.10"/><circle cx="964" cy="994" r="1.2" fill-opacity="0.12"/><circle cx="972" cy="345" r="1.0" fill-opacity="0.11"/><circle cx="310" cy="1011" r="1.8" fill-opacity="0.23"/><circle cx="324" cy="848" r="1.1" fill-opacity="0.17"/><circle cx="1222" cy="389" r="2.0" fill-opacity="0.17"/><circle cx="1114" cy="953" r="1.1" fill-opacity="0.25"/><circle cx="1209" cy="426" r="2.0" fill-opacity="0.13"/><circle cx="1902" cy="624" r="1.4" fill-opacity="0.21"/><circle cx="849" cy="191" r="1.9" fill-opacity="0.09"/><circle cx="1574" cy="274" r="1.8" fill-opacity="0.25"/><circle cx="1125" cy="717" r="1.4" fill-opacity="0.08"/><circle cx="65" cy="161" r="1.7" fill-opacity="0.15"/><circle cx="984" cy="967" r="1.2" fill-opacity="0.12"/><circle cx="1254" cy="24" r="1.0" fill-opacity="0.14"/><circle cx="204" cy="386" r="1.3" fill-opacity="0.18"/><circle cx="1131" cy="221" r="1.7" fill-opacity="0.16"/><circle cx="259" cy="1012" r="1.3" fill-opacity="0.11"/><circle cx="184" cy="689" r="2.0" fill-opacity="0.21"/><circle cx="772" cy="285" r="1.0" fill-opacity="0.19"/><circle cx="1080" cy="378" r="1.8" fill-opacity="0.16"/><circle cx="1799" cy="792" r="1.3" fill-opacity="0.23"/><circle cx="84" cy="574" r="1.5" fill-opacity="0.12"/><circle cx="112" cy="841" r="1.0" fill-opacity="0.17"/></g></svg>
